<svg xmlns="http://www.w3.org/2000/svg" viewBox="0 0 100 100" width="100" height="100">
  <defs>
    <!-- Градиент для фона -->
    <radialGradient id="bgGradient" cx="50%" cy="50%">
      <stop offset="0%" stop-color="#5b9bd5" stop-opacity="1"/>
      <stop offset="100%" stop-color="#2563eb" stop-opacity="1"/>
    </radialGradient>
    
    <!-- Тень -->
    <filter id="shadow" x="-20%" y="-20%" width="140%" height="140%">
      <feDropShadow dx="3" dy="6" stdDeviation="4" flood-color="#000000" flood-opacity="0.3"/>
    </filter>
  </defs>
  
  <!-- Основной круг с градиентом и тенью -->
  <circle cx="50" cy="48" r="38" fill="url(#bgGradient)" stroke="#ffffff" stroke-width="3" filter="url(#shadow)"/>
  
  <!-- Песочные часы (верхняя часть) -->
  <path d="M 35 25 L 45 28 L 55 28 L 65 25 L 50 40 Z" fill="#ffffff" opacity="0.3"/>
  
  <!-- Песочные часы (нижняя часть - заполнена) -->
  <path d="M 35 70 L 45 67 L 55 67 L 65 70 L 50 55 Z" fill="#ffffff"/>
  
  <!-- Перемычка между частями песочных часов -->
  <line x1="38" y1="42" x2="42" y2="41" stroke="#ffffff" stroke-width="2.5" stroke-linecap="round"/>
  <line x1="50" y1="42" x2="50" y2="41" stroke="#ffffff" stroke-width="2.5" stroke-linecap="round"/>
  <line x1="58" y1="42" x2="62" y2="41" stroke="#ffffff" stroke-width="2.5" stroke-linecap="round"/>
  
  <!-- Песок пересыпается -->
  <circle cx="50" cy="50" r="12" fill="#ffffff" opacity="0.5"/>
  
  <!-- График роста слева -->
  <path d="M 22 35 L 28 28 L 32 32 L 36 25" stroke="#ffffff" stroke-width="3" stroke-linecap="round" stroke-linejoin="round" fill="none"/>
  
  <!-- Стрелка роста справа -->
  <path d="M 68 30 L 78 22 M 78 22 L 74 26 M 78 22 L 72 28" stroke="#ffffff" stroke-width="3" stroke-linecap="round" stroke-linejoin="round"/>
</svg>
